<svg xmlns="http://www.w3.org/2000/svg" width="56.528" height="50.532" viewBox="0 0 56.528 50.532">
  <g id="certification-svgrepo-com" transform="translate(0 -15.89)">
    <g id="Group_2870" data-name="Group 2870" transform="translate(0 15.89)">
      <g id="Group_2869" data-name="Group 2869" transform="translate(0 0)">
        <path id="Path_7924" data-name="Path 7924" d="M74.785,139.731H37.057a1.387,1.387,0,1,0,0,2.774H74.785a1.387,1.387,0,1,0,0-2.774Z" transform="translate(-28.94 -116.364)" fill="#a5c715"/>
        <path id="Path_7925" data-name="Path 7925" d="M66.2,173.151H37.057a1.387,1.387,0,0,0,0,2.774H66.2a1.387,1.387,0,0,0,0-2.774Z" transform="translate(-28.94 -143.478)" fill="#a5c715"/>
        <path id="Path_7926" data-name="Path 7926" d="M88.918,63.9h18.157a1.387,1.387,0,0,0,1.387-1.387v-9.4a1.387,1.387,0,0,0-1.387-1.387H88.918a1.387,1.387,0,0,0-1.387,1.387v9.4A1.387,1.387,0,0,0,88.918,63.9ZM90.3,54.5h15.384v6.627H90.3Z" transform="translate(-71.015 -44.962)" fill="#a5c715"/>
        <path id="Path_7927" data-name="Path 7927" d="M53.962,45.07V17.277a1.387,1.387,0,0,0-1.387-1.387H1.387A1.387,1.387,0,0,0,0,17.277V54.04a1.387,1.387,0,0,0,1.387,1.387h41.1a7.843,7.843,0,0,0,.643.766v8.842a1.389,1.389,0,0,0,2.368.981l3.26-3.26,3.26,3.26a1.388,1.388,0,0,0,2.368-.981V56.193A7.758,7.758,0,0,0,53.962,45.07ZM41.194,52.653H2.774V18.664H51.188V43.449A7.786,7.786,0,0,0,41.194,52.653Zm10.413,9.033-1.873-1.873a1.387,1.387,0,0,0-1.961,0L45.9,61.686V58.068a7.81,7.81,0,0,0,5.707,0v3.618Zm-2.853-5.849a5,5,0,1,1,5-5A5.009,5.009,0,0,1,48.754,55.837Z" transform="translate(0 -15.89)" fill="#a5c715"/>
      </g>
    </g>
  </g>
</svg>
