<svg xmlns="http://www.w3.org/2000/svg" width="58.149" height="41.935" viewBox="0 0 58.149 41.935">
  <path id="corp-interest-expenses-svgrepo-com" d="M79.121,155.214c-.767-3.324-5.881-5.881-12.529-5.881-7.16,0-12.529,2.813-12.785,6.648v28.894a.939.939,0,0,0,.256.767c1.023,3.324,6.137,5.625,12.529,5.625,6.137,0,11-2.046,12.274-5.114a1.328,1.328,0,0,0,.511-1.023v-29.15C79.632,155.726,79.377,155.47,79.121,155.214ZM66.592,151.89c5.881,0,10.228,2.3,10.228,4.091,0,2.046-4.347,4.091-10.228,4.091s-10.228-2.3-10.228-4.091C56.619,154.191,60.966,151.89,66.592,151.89Zm-9.972,8.182a18.805,18.805,0,0,0,10.228,2.557c4.347,0,7.927-1.023,10.228-2.813v3.58H76.82c0,2.046-4.347,4.091-10.228,4.091s-10.228-2.3-10.228-4.091v-3.324Zm0,7.415a18.805,18.805,0,0,0,10.228,2.557c4.347,0,7.927-1.023,10.228-2.813v2.557H76.82c0,2.046-4.347,4.091-10.228,4.091s-10.228-2.3-10.228-4.091v-2.3Zm0,6.648a18.806,18.806,0,0,0,10.228,2.557c4.347,0,7.927-1.023,10.228-2.813V177.2H76.82c0,2.046-4.347,4.091-10.228,4.091s-10.228-2.3-10.228-4.091v-3.068Zm9.972,14.575c-5.881,0-10.228-2.3-10.228-4.091V181.3a18.806,18.806,0,0,0,10.228,2.557c4.347,0,7.927-1.023,10.228-2.813v3.324h-.256c.256,2.046-4.091,4.347-9.972,4.347ZM27.214,158.282H23.89a2.562,2.562,0,0,0-2.557,2.557v28.383a1.748,1.748,0,0,0,1.79,1.79h4.6a1.748,1.748,0,0,0,1.79-1.79V160.839A2.351,2.351,0,0,0,27.214,158.282Zm0,30.172H23.89V160.839h3.324v27.615Zm10.995-39.122h-3.58a2.562,2.562,0,0,0-2.557,2.557v37.588a1.748,1.748,0,0,0,1.79,1.79h4.6a1.748,1.748,0,0,0,1.79-1.79V151.89a2.059,2.059,0,0,0-2.046-2.557Zm-.256,39.378H34.885V151.89h3.324v36.821ZM48.948,168H45.624a2.562,2.562,0,0,0-2.557,2.557v18.41a1.748,1.748,0,0,0,1.79,1.79h4.6a1.748,1.748,0,0,0,1.79-1.79V170.3C51.505,169.277,50.483,168,48.948,168Zm0,20.456H45.624V170.812h3.324Z" transform="translate(-21.333 -149.333)" fill="#fcbf00"/>
</svg>
