<svg xmlns="http://www.w3.org/2000/svg" width="45.933" height="45.934" viewBox="0 0 45.933 45.934">
  <path id="gallery-wstxda-svgrepo-com" d="M31.52,60.534c4.618-6.12,9.237-12.212,13.855-18.332a4.032,4.032,0,0,1,3.173-1.558,3.952,3.952,0,0,1,2.975,1.473c3.173,3.825,6.318,7.65,9.492,11.475m-16.688-10c-1.445-2.3-2.89-4.647-4.335-6.942a4.052,4.052,0,0,0-3.315-1.813,4.1,4.1,0,0,0-3.23,1.785c-3.088,5.185-6.205,10.342-9.293,15.555m39.78-9.208A20.967,20.967,0,1,1,42.967,22,20.956,20.956,0,0,1,63.933,42.967ZM51.013,29.622A3.694,3.694,0,0,1,54.7,33.305a3.683,3.683,0,0,1-7.367,0,3.713,3.713,0,0,1,3.683-3.683Z" transform="translate(-20 -20)" fill="none" stroke="#a5c715" stroke-width="4"/>
</svg>
