<svg xmlns="http://www.w3.org/2000/svg" width="51.146" height="51.146" viewBox="0 0 51.146 51.146">
  <g id="Group_2333" data-name="Group 2333" transform="translate(2 2)">
    <g id="Page-1" transform="translate(0 0)">
      <path id="support-svgrepo-com" d="M42.289,10.858l-8.307,8.307m0,0a10.477,10.477,0,0,0-14.817,0m14.817,0a10.477,10.477,0,0,1,0,14.817m8.307,8.307-8.307-8.307m0,0a10.477,10.477,0,0,1-14.817,0m-8.307,8.307,8.307-8.307m0,0a10.477,10.477,0,0,1,0-14.817m-8.307-8.307,8.307,8.307m30.982,7.408A23.573,23.573,0,1,1,26.573,3,23.573,23.573,0,0,1,50.146,26.573Z" transform="translate(-3 -3)" fill="none" stroke="#27cbdd" stroke-linecap="round" stroke-linejoin="round" stroke-width="4"/>
    </g>
  </g>
</svg>
