<svg xmlns="http://www.w3.org/2000/svg" width="25.399" height="20.629" viewBox="0 0 25.399 20.629">
  <path id="Icon_awesome-twitter" data-name="Icon awesome-twitter" d="M22.788,9.367c.016.226.016.451.016.677A14.709,14.709,0,0,1,7.994,24.855,14.71,14.71,0,0,1,0,22.518a10.769,10.769,0,0,0,1.257.064A10.425,10.425,0,0,0,7.72,20.358a5.215,5.215,0,0,1-4.867-3.61,6.565,6.565,0,0,0,.983.081,5.506,5.506,0,0,0,1.37-.177,5.206,5.206,0,0,1-4.174-5.109v-.064a5.243,5.243,0,0,0,2.353.661A5.213,5.213,0,0,1,1.773,5.177a14.8,14.8,0,0,0,10.733,5.447,5.876,5.876,0,0,1-.129-1.193A5.211,5.211,0,0,1,21.386,5.87a10.249,10.249,0,0,0,3.3-1.257A5.192,5.192,0,0,1,22.4,7.481a10.436,10.436,0,0,0,3-.806A11.19,11.19,0,0,1,22.788,9.367Z" transform="translate(0 -4.226)" fill="#fff"/>
</svg>
