<svg xmlns="http://www.w3.org/2000/svg" width="27.863" height="27.862" viewBox="0 0 27.863 27.862">
  <path id="Icon_awesome-linkedin-in" data-name="Icon awesome-linkedin-in" d="M6.237,27.863H.46V9.261H6.237ZM3.345,6.723A3.361,3.361,0,1,1,6.691,3.346,3.374,3.374,0,0,1,3.345,6.723Zm24.511,21.14H22.093V18.808c0-2.158-.044-4.926-3-4.926-3,0-3.464,2.345-3.464,4.77v9.211H9.855V9.261H15.4V11.8h.081a6.07,6.07,0,0,1,5.466-3c5.846,0,6.921,3.85,6.921,8.85V27.863Z" transform="translate(0 -0.001)" fill="#fff"/>
</svg>
