<svg xmlns="http://www.w3.org/2000/svg" width="31.866" height="22.406" viewBox="0 0 31.866 22.406">
  <path id="Icon_awesome-youtube" data-name="Icon awesome-youtube" d="M32.25,8.006A4,4,0,0,0,29.433,5.17c-2.485-.67-12.45-.67-12.45-.67s-9.965,0-12.45.67A4,4,0,0,0,1.716,8.006a42,42,0,0,0-.666,7.72,42,42,0,0,0,.666,7.72,3.944,3.944,0,0,0,2.817,2.79c2.485.67,12.45.67,12.45.67s9.965,0,12.45-.67a3.944,3.944,0,0,0,2.817-2.79,42,42,0,0,0,.666-7.72,42,42,0,0,0-.666-7.72ZM13.724,20.464V10.987l8.329,4.738-8.329,4.738Z" transform="translate(-1.05 -4.5)" fill="#fff"/>
</svg>
