<svg xmlns="http://www.w3.org/2000/svg" width="50.284" height="50.331" viewBox="0 0 50.284 50.331">
  <path id="Icon_weather-day-sunny" data-name="Icon weather-day-sunny" d="M5.244,29.942a2,2,0,0,1,.592-1.468,2.046,2.046,0,0,1,1.42-.568h4.83a1.794,1.794,0,0,1,1.373.592,2.224,2.224,0,0,1,.024,2.888,1.76,1.76,0,0,1-1.373.592H7.28a1.932,1.932,0,0,1-1.42-.592A1.969,1.969,0,0,1,5.244,29.942Zm6.771,16.406a2.193,2.193,0,0,1,.545-1.444l3.48-3.385a1.82,1.82,0,0,1,1.4-.545,2.005,2.005,0,0,1,1.42.545,1.77,1.77,0,0,1,.568,1.349,2.233,2.233,0,0,1-.568,1.515l-3.362,3.362a2.15,2.15,0,0,1-2.912,0A1.911,1.911,0,0,1,12.015,46.348Zm0-32.765a2.193,2.193,0,0,1,.545-1.444,2.273,2.273,0,0,1,1.515-.592,1.99,1.99,0,0,1,1.4.568l3.385,3.48a1.838,1.838,0,0,1,.568,1.4,1.942,1.942,0,0,1-1.989,1.989,1.838,1.838,0,0,1-1.4-.568l-3.456-3.385A1.982,1.982,0,0,1,12.015,13.583Zm6.037,16.359a11.949,11.949,0,0,1,1.657-6.155,12.363,12.363,0,0,1,4.522-4.522A12.145,12.145,0,0,1,35.168,18.6a12.368,12.368,0,0,1,3.93,2.651,12.422,12.422,0,0,1,3.6,8.712,11.972,11.972,0,0,1-1.657,6.179,12.416,12.416,0,0,1-4.5,4.5,12.348,12.348,0,0,1-12.358,0,12.416,12.416,0,0,1-4.5-4.5A12.578,12.578,0,0,1,18.052,29.942Zm4.025,0a8.366,8.366,0,0,0,8.333,8.381,8.406,8.406,0,0,0,8.381-8.381,7.981,7.981,0,0,0-2.462-5.847A8.111,8.111,0,0,0,30.41,21.68a8,8,0,0,0-5.871,2.415A7.891,7.891,0,0,0,22.076,29.942Zm6.3,18.418a1.86,1.86,0,0,1,.592-1.42,2,2,0,0,1,1.42-.568,1.982,1.982,0,0,1,1.444.568,1.927,1.927,0,0,1,.568,1.42v4.711a2,2,0,0,1-.592,1.468,1.932,1.932,0,0,1-1.42.592,1.9,1.9,0,0,1-1.42-.592,2,2,0,0,1-.592-1.468V48.36Zm0-36.695V6.836a1.932,1.932,0,0,1,.592-1.42A1.969,1.969,0,0,1,30.41,4.8a1.9,1.9,0,0,1,1.42.592,1.932,1.932,0,0,1,.592,1.42v4.853a1.794,1.794,0,0,1-.592,1.373,1.983,1.983,0,0,1-1.42.545,2.046,2.046,0,0,1-1.42-.545A1.863,1.863,0,0,1,28.374,11.665Zm13.068,31.2A1.859,1.859,0,0,1,43.312,41a2.005,2.005,0,0,1,1.42.545l3.456,3.385a2.06,2.06,0,0,1,.568,1.444,1.911,1.911,0,0,1-.568,1.4,2.108,2.108,0,0,1-2.841,0l-3.362-3.362A2.3,2.3,0,0,1,41.442,42.868Zm0-25.852a1.835,1.835,0,0,1,.544-1.4l3.362-3.48a1.99,1.99,0,0,1,1.4-.568,1.86,1.86,0,0,1,1.42.592,1.932,1.932,0,0,1,.592,1.42,2,2,0,0,1-.568,1.468l-3.456,3.385a2.088,2.088,0,0,1-1.42.568,1.719,1.719,0,0,1-1.326-.568A2.005,2.005,0,0,1,41.442,17.016Zm5.35,12.926a2.117,2.117,0,0,1,.568-1.468,1.844,1.844,0,0,1,1.349-.568h4.782a2.009,2.009,0,0,1,1.42,3.456,1.932,1.932,0,0,1-1.42.592H48.71a1.76,1.76,0,0,1-1.373-.592A2.046,2.046,0,0,1,46.792,29.942Z" transform="translate(-5.244 -4.8)" fill="#fcbf00"/>
</svg>
