<svg xmlns="http://www.w3.org/2000/svg" width="26.125" height="24.225" viewBox="0 0 26.125 24.225">
  <g id="Group_3789" data-name="Group 3789" transform="translate(-410 -483.337)">
    <path id="microsoftteams-svgrepo-com" d="M25.5,18.1V12.44H21.414V19.9a2.133,2.133,0,0,0,.738.487l.015.005a2.42,2.42,0,0,0,.873.159h.026a2.392,2.392,0,0,0,.956-.2l-.016.006A2.442,2.442,0,0,0,25.3,19.076l.006-.016a2.361,2.361,0,0,0,.192-.94V18.1h0Zm-5.714,1.684V12.44H14.066v7.08A1.089,1.089,0,0,1,12.983,20.6H10.049a5.115,5.115,0,0,0,1.672,2.922l.006.005a4.774,4.774,0,0,0,3.12,1.154h.064a4.746,4.746,0,0,0,1.9-.4l-.03.012a4.955,4.955,0,0,0,2.6-2.577l.012-.032a4.682,4.682,0,0,0,.383-1.871v-.037ZM8.555,11.827H11V9.787H4.068v2.041H6.517v6.531H8.558Zm6.327-8.1h0a2.153,2.153,0,0,0-1.539.645h0a2.269,2.269,0,0,0-.46.681l-.006.015A2.051,2.051,0,0,0,12.7,5.9v.013h0v.009a2.134,2.134,0,0,0,.178.855l-.005-.014a2.23,2.23,0,0,0,.466.694h0a2.2,2.2,0,0,0,.681.461l.014.005a2.094,2.094,0,0,0,.839.172h.021a2.073,2.073,0,0,0,.842-.178l-.013.005a2.343,2.343,0,0,0,.7-.466h0a2.189,2.189,0,0,0,.466-.681l.005-.014a2.094,2.094,0,0,0,.172-.839V5.91h0V5.9a2.08,2.08,0,0,0-.178-.843l.005.013a2.284,2.284,0,0,0-.472-.7h0a2.23,2.23,0,0,0-.681-.466L15.724,3.9a2.051,2.051,0,0,0-.829-.172h-.012Zm12.246,8.3v6.095a4,4,0,0,1-.329,1.592l.01-.026a4.1,4.1,0,0,1-2.148,2.164l-.026.01a3.927,3.927,0,0,1-1.565.319h-.023a4.451,4.451,0,0,1-1.018-.12l.03.006a3.33,3.33,0,0,1-.942-.367l.016.009a6.445,6.445,0,0,1-.943,1.9L20.2,23.6a6.533,6.533,0,0,1-3.208,2.378l-.046.013a6.344,6.344,0,0,1-2.048.332h-.06a6.373,6.373,0,0,1-2.355-.449l.044.015a6.543,6.543,0,0,1-1.971-1.206l.007.006a6.7,6.7,0,0,1-1.411-1.777l-.017-.035a6.423,6.423,0,0,1-.73-2.237l0-.034H2.075a1.042,1.042,0,0,1-.752-.319h0A1.04,1.04,0,0,1,1,19.534v-.015H1V8.612a1.04,1.04,0,0,1,.319-.751h0a1.04,1.04,0,0,1,.751-.319h9.365a3.705,3.705,0,0,1-.37-1.626V5.909h0V5.884A3.7,3.7,0,0,1,11.377,4.4l-.01.024a3.837,3.837,0,0,1,2-2.019l.024-.01a3.839,3.839,0,0,1,3,.01l-.025-.01a3.837,3.837,0,0,1,2.019,2l.01.024a3.839,3.839,0,0,1-.01,3l.01-.025a3.841,3.841,0,0,1-2,2.018l-.024.01a3.641,3.641,0,0,1-1.461.3h-.024a3.243,3.243,0,0,1-.424-.028l.017,0q-.2-.025-.409-.063v1.173H25.909a1.219,1.219,0,0,1,1.219,1.219v.006h0ZM23.455,5.909A1.227,1.227,0,0,0,22.587,8h0a1.227,1.227,0,1,0,1.735-1.735h0a1.179,1.179,0,0,0-.847-.357h-.022Zm0,4.082h-.024a2.778,2.778,0,0,1-1.111-.23l.018.007a2.905,2.905,0,0,1-1.511-1.5l-.007-.018A2.839,2.839,0,0,1,20.6,7.137a2.88,2.88,0,0,1,.23-1.132l-.007.019a2.891,2.891,0,0,1,1.5-1.517l.018-.007a2.839,2.839,0,0,1,1.113-.223,2.88,2.88,0,0,1,1.132.23L24.564,4.5a2.876,2.876,0,0,1,1.517,1.505l.007.018a2.839,2.839,0,0,1,.223,1.113,2.88,2.88,0,0,1-.23,1.132l.007-.019a2.89,2.89,0,0,1-1.505,1.511l-.018.007a2.752,2.752,0,0,1-1.095.223h-.016Z" transform="translate(408.996 481.243)" fill="#009bac"/>
  </g>
</svg>
