<svg xmlns="http://www.w3.org/2000/svg" width="48.786" height="46.823" viewBox="0 0 48.786 46.823">
  <path id="star-svgrepo-com" d="M23.083,4.184a2.5,2.5,0,0,1,4.617,0L32,14.672a2.5,2.5,0,0,0,2.121,1.541l11.3.85a2.5,2.5,0,0,1,1.427,4.391l-8.646,7.333a2.5,2.5,0,0,0-.81,2.494L40.083,42.3a2.5,2.5,0,0,1-3.735,2.714L26.7,39.052a2.5,2.5,0,0,0-2.622,0l-9.645,5.957A2.5,2.5,0,0,1,10.7,42.3l2.685-11.014a2.5,2.5,0,0,0-.81-2.494L3.928,21.455a2.5,2.5,0,0,1,1.427-4.391l11.3-.85a2.5,2.5,0,0,0,2.121-1.541Z" transform="translate(-0.998 -0.635)" fill="none" stroke="#ff8f8f" stroke-width="4"/>
</svg>
